<?xml version="1.0" encoding="utf-8"?>
<!-- Generator: Adobe Illustrator 24.3.0, SVG Export Plug-In . SVG Version: 6.00 Build 0)  -->
<svg version="1.1" id="Layer_1" xmlns="http://www.w3.org/2000/svg" xmlns:xlink="http://www.w3.org/1999/xlink" x="0px" y="0px"
	 viewBox="0 0 595.28 841.89" style="enable-background:new 0 0 595.28 841.89;" xml:space="preserve">
<style type="text/css">
	.st0{fill:#5A3B5C;stroke:#000000;stroke-miterlimit:10;}
	.st1{fill:#7D9389;stroke:#000000;stroke-miterlimit:10;}
	.st2{fill:#5E5453;}
	.st3{font-family:'MonotypeCorsiva';}
	.st4{font-size:57.4335px;}
</style>
<g>
	<rect x="213.7" y="461.3" class="st0" width="30.91" height="63.42"/>
	<rect x="167.91" y="317.72" class="st0" width="30.91" height="63.42"/>
	<rect x="244.61" y="381.14" class="st1" width="60.67" height="32.3"/>
	<rect x="244.61" y="476.86" class="st1" width="60.67" height="32.31"/>
	<rect x="259.49" y="317.72" class="st0" width="30.91" height="63.42"/>
	<rect x="259.49" y="413.44" class="st0" width="30.91" height="63.42"/>
	<rect x="213.7" y="365.58" class="st0" width="30.91" height="63.42"/>
	<rect x="198.82" y="333.27" class="st1" width="60.67" height="32.31"/>
	<rect x="198.82" y="429" class="st1" width="60.67" height="32.3"/>
	<rect x="167.91" y="413.44" class="st0" width="30.91" height="63.42"/>
	<rect x="153.02" y="381.14" class="st1" width="60.68" height="32.3"/>
	<rect x="153.02" y="476.86" class="st1" width="60.68" height="32.31"/>
	<rect x="122.11" y="365.58" class="st0" width="30.91" height="63.42"/>
	<rect x="122.11" y="461.3" class="st0" width="30.91" height="63.42"/>
	<rect x="107.23" y="333.27" class="st1" width="60.68" height="32.31"/>
	<rect x="107.23" y="429" class="st1" width="60.68" height="32.3"/>
	<text transform="matrix(0.9568 0 0 1 306.4247 384.7276)"><tspan x="0" y="0" class="st2 st3 st4">Word</tspan><tspan x="0" y="68.92" class="st2 st3 st4">Weaver</tspan></text>
</g>
</svg>
